<?xml version="1.0" standalone="no"?>
<!DOCTYPE svg PUBLIC "-//W3C//DTD SVG 20010904//EN"
 "http://www.w3.org/TR/2001/REC-SVG-20010904/DTD/svg10.dtd">
<svg version="1.0" xmlns="http://www.w3.org/2000/svg"
 width="1000.000000pt" height="1000.000000pt" viewBox="0 0 1000.000000 1000.000000"
 preserveAspectRatio="xMidYMid meet">
<metadata>
Created by potrace 1.14, written by Peter Selinger 2001-2017
</metadata>
<g transform="translate(0.000000,1000.000000) scale(0.100000,-0.100000)"
fill="#000000" stroke="none">
<path d="M4937 9394 c-1 -1 -69 -5 -152 -8 -82 -4 -168 -9 -190 -11 -44 -3
-146 -14 -185 -19 -100 -12 -141 -18 -185 -26 -27 -5 -66 -12 -85 -15 -174
-29 -514 -158 -895 -340 -55 -27 -102 -49 -105 -50 -8 -2 -270 -135 -357 -181
-46 -24 -122 -65 -170 -90 -49 -26 -187 -102 -308 -169 -250 -139 -297 -165
-485 -264 -74 -39 -142 -75 -150 -80 -13 -7 -15 -218 -17 -1792 -2 -1877 -3
-1832 41 -1994 9 -33 18 -67 20 -75 29 -121 202 -487 332 -701 72 -119 248
-386 297 -451 7 -9 31 -19 53 -22 21 -3 53 -7 69 -10 17 -3 59 -8 95 -12 36
-3 76 -8 90 -9 107 -14 164 -20 360 -40 14 -1 61 -5 105 -9 44 -4 100 -9 125
-11 113 -11 179 -17 230 -20 63 -4 190 -13 300 -20 158 -11 446 -24 670 -30
186 -6 918 -6 1110 -1 251 7 760 32 845 41 22 3 81 7 130 10 50 3 110 7 135
10 97 10 262 25 330 30 19 1 58 5 85 9 28 4 75 8 105 11 30 2 69 6 85 9 17 2
57 7 90 10 33 4 116 13 185 22 133 16 143 21 183 90 7 11 46 72 88 135 211
318 375 637 462 901 32 93 43 140 73 288 4 19 8 842 8 1827 l1 1793 -200 124
c-579 358 -1190 700 -1505 840 -36 16 -93 42 -127 58 -200 92 -464 169 -658
193 -27 3 -66 8 -85 10 -19 3 -64 7 -100 10 -36 3 -81 8 -100 10 -100 11 -634
27 -643 19z"/>
<path d="M1749 3806 c-2 -2 -25 -7 -52 -10 -26 -4 -60 -11 -75 -17 -15 -6 -29
-10 -32 -10 -3 1 -21 -2 -40 -6 -46 -9 -50 -10 -52 -13 -2 -1 -12 -3 -23 -5
-22 -4 -85 -22 -125 -36 -21 -7 -187 -52 -240 -65 -71 -17 -214 -45 -255 -49
-111 -13 -134 -15 -230 -15 -116 -1 -174 4 -300 27 -162 29 -237 -24 -185
-131 28 -60 127 -154 280 -267 110 -82 185 -185 177 -244 -10 -75 -95 -134
-312 -215 -242 -91 -300 -142 -258 -224 40 -77 104 -132 166 -142 142 -23 515
-23 691 1 17 2 56 7 86 10 30 4 64 8 75 10 11 2 74 11 140 21 66 9 125 22 132
28 10 10 146 397 190 541 26 86 48 118 139 200 48 44 113 103 143 131 31 28
77 69 102 90 25 22 53 49 62 61 17 21 16 24 -16 75 -37 57 -101 173 -126 226
-10 21 -22 32 -36 32 -12 0 -24 -2 -26 -4z"/>
<path d="M8199 3768 c-36 -71 -79 -149 -121 -222 l-41 -69 39 -36 c22 -21 89
-82 149 -136 61 -55 112 -102 115 -105 3 -3 24 -18 47 -33 23 -16 52 -45 66
-65 13 -20 70 -175 127 -344 56 -170 105 -308 109 -309 3 0 13 -2 21 -4 21 -4
63 -11 150 -25 41 -6 86 -13 100 -16 14 -2 57 -6 95 -10 39 -3 73 -8 76 -10
11 -7 236 -18 364 -18 174 0 309 11 354 30 45 19 107 78 129 123 42 90 -9 137
-238 223 -260 98 -330 149 -330 241 0 63 56 130 205 247 101 79 103 81 157
130 54 48 101 112 111 148 9 38 -11 79 -46 93 -31 14 -98 16 -147 6 -91 -19
-178 -26 -310 -26 -100 -1 -126 1 -230 15 -94 12 -117 16 -170 29 -30 8 -66
16 -80 19 -14 2 -83 21 -155 41 -265 74 -475 125 -517 125 -4 0 -17 -19 -29
-42z"/>
<path d="M2010 3348 c-19 -17 -57 -52 -85 -77 -27 -25 -67 -60 -87 -78 l-37
-32 67 -6 c37 -3 92 -8 122 -10 30 -3 93 -8 139 -12 l84 -6 -75 109 c-41 60
-79 117 -84 126 -8 15 -13 13 -44 -14z"/>
<path d="M7895 3253 c-38 -59 -72 -111 -74 -116 -2 -6 21 -7 55 -3 99 10 217
19 261 20 24 1 43 4 43 7 0 4 -39 42 -87 85 -48 44 -94 87 -102 97 -9 9 -18
17 -21 17 -3 0 -36 -48 -75 -107z"/>
<path d="M1723 3073 c-23 -8 -48 -24 -56 -36 -8 -12 -51 -130 -95 -262 -74
-217 -110 -324 -226 -654 -42 -122 -43 -132 -14 -178 30 -49 79 -66 253 -89
50 -6 69 -9 115 -19 14 -3 45 -7 70 -10 25 -2 56 -6 70 -9 14 -3 61 -10 105
-16 44 -6 96 -13 115 -16 81 -11 166 -22 225 -29 17 -2 89 -11 160 -20 72 -9
155 -18 185 -21 30 -2 66 -6 80 -9 14 -2 52 -7 85 -10 33 -3 78 -8 100 -10 22
-2 72 -7 110 -10 39 -3 88 -8 110 -10 22 -3 76 -7 120 -10 44 -3 98 -7 120
-10 22 -2 81 -7 130 -10 50 -3 115 -8 145 -10 30 -3 107 -7 170 -10 63 -3 144
-8 180 -10 219 -14 554 -20 1050 -19 515 0 731 4 1000 19 52 3 131 8 175 10
44 2 123 7 175 11 52 3 118 8 145 9 28 2 84 6 125 10 41 3 100 8 130 10 30 2
73 6 95 9 22 2 74 7 115 11 41 3 93 8 115 10 22 2 69 7 105 10 36 3 76 8 90
10 14 2 54 6 90 9 36 4 76 8 90 10 14 2 52 7 85 11 32 4 66 8 75 10 8 1 44 6
80 10 77 8 100 11 160 20 77 11 93 13 150 21 30 4 57 8 60 9 3 1 37 5 75 10
39 5 72 10 75 10 5 1 80 13 130 20 94 14 181 29 230 40 36 8 68 38 85 79 17
39 17 39 -81 316 -20 58 -85 248 -145 424 -59 175 -116 327 -126 338 -35 39
-70 45 -163 31 -47 -7 -105 -15 -130 -18 -25 -3 -52 -7 -60 -10 -8 -2 -42 -6
-75 -10 -33 -3 -67 -8 -75 -10 -8 -2 -42 -7 -75 -11 -33 -3 -71 -8 -85 -10
-14 -2 -50 -6 -80 -9 -30 -3 -62 -8 -70 -10 -8 -2 -44 -7 -80 -10 -36 -4 -78
-9 -95 -11 -16 -2 -53 -6 -82 -8 -29 -3 -69 -7 -90 -10 -43 -6 -137 -15 -209
-21 -27 -3 -71 -7 -99 -10 -27 -3 -84 -7 -125 -10 -41 -4 -91 -8 -110 -10 -19
-2 -78 -6 -130 -10 -52 -3 -113 -7 -135 -9 -35 -4 -166 -11 -365 -22 -305 -15
-472 -18 -1000 -18 -541 0 -749 4 -1015 19 -44 3 -125 7 -180 10 -55 3 -129 8
-165 11 -36 3 -94 7 -130 9 -36 2 -94 7 -130 11 -36 3 -87 7 -115 9 -45 2
-134 10 -220 20 -16 2 -66 6 -110 10 -44 4 -88 9 -97 10 -9 2 -49 7 -89 10
-40 4 -81 8 -92 10 -10 2 -48 7 -85 10 -37 4 -78 8 -92 10 -14 2 -38 6 -55 9
-16 2 -59 8 -95 12 -36 4 -67 8 -70 9 -3 1 -39 5 -80 10 -41 5 -77 9 -80 10
-3 1 -32 5 -65 9 -33 5 -69 10 -79 12 -11 2 -56 8 -100 15 -44 6 -83 12 -86
13 -3 2 -24 -3 -47 -11z"/>
<path d="M6278 1515 c-3 -3 -50 -8 -104 -10 -54 -3 -139 -7 -189 -10 -458 -26
-1500 -25 -1980 1 -55 3 -126 6 -157 8 -32 2 -58 0 -58 -4 0 -4 39 -43 86 -86
48 -44 104 -95 125 -115 21 -20 66 -60 100 -90 35 -30 73 -63 85 -74 47 -43
80 -69 227 -186 84 -66 159 -126 168 -133 38 -31 219 -146 264 -168 99 -50
246 -68 314 -40 36 14 227 127 248 146 6 6 28 22 48 36 36 25 169 125 192 145
30 25 48 40 106 88 34 28 64 53 67 56 3 4 25 24 50 45 145 126 430 395 419
396 -3 0 -8 -2 -11 -5z"/>
</g>
</svg>
